<svg xmlns="http://www.w3.org/2000/svg" viewBox="0 0 329.46 299.96"><defs><style>.cls-1{fill:#6193e3;}</style></defs><g id="Text"><path class="cls-1" d="M90.92,396.69v-42H114a10.92,10.92,0,0,1,5.56,1.44,10.79,10.79,0,0,1,4,4,11.84,11.84,0,0,1,1.5,6.06,10,10,0,0,1-.56,3.36,11.08,11.08,0,0,1-1.56,3,11.63,11.63,0,0,1-2.33,2.37,11.37,11.37,0,0,1,2.82,2.55,11.88,11.88,0,0,1,2.55,7.41,12.27,12.27,0,0,1-1.53,6.21,10.9,10.9,0,0,1-4.11,4.14,11.3,11.3,0,0,1-5.69,1.47Zm11.59-25.8h8.16a2.24,2.24,0,0,0,1.4-.45,3,3,0,0,0,.91-1.14,3.36,3.36,0,0,0,.33-1.47,3.31,3.31,0,0,0-.33-1.5,2.92,2.92,0,0,0-.88-1.08,2.33,2.33,0,0,0-1.43-.42h-8.16Zm0,16H112a2.46,2.46,0,0,0,1.45-.42,3,3,0,0,0,.94-1.17,3.9,3.9,0,0,0,.35-1.65,3.51,3.51,0,0,0-.35-1.59,3.1,3.1,0,0,0-.94-1.11,2.46,2.46,0,0,0-1.45-.42h-9.51Z" transform="translate(-90.92 -97.51)"/><path class="cls-1" d="M129.25,396.69V386.55h5.86V364.83h-5.86V354.69h23.36v10.14H146.7v21.72h5.91v10.14Z" transform="translate(-90.92 -97.51)"/><path class="cls-1" d="M169.09,396.69a12.15,12.15,0,0,1-6.65-1.8,12.33,12.33,0,0,1-4.41-4.77,13.9,13.9,0,0,1-1.55-6.57V354.69h11.59v29a3,3,0,0,0,.73,2,2.24,2.24,0,0,0,1.8.87h9.93v10.14Z" transform="translate(-90.92 -97.51)"/><path class="cls-1" d="M196.26,396.69a12.21,12.21,0,0,1-6.66-1.8,12.38,12.38,0,0,1-4.4-4.77,13.91,13.91,0,0,1-1.56-6.57V354.69h11.6v29a3,3,0,0,0,.73,2,2.24,2.24,0,0,0,1.8.87h9.93v10.14Z" transform="translate(-90.92 -97.51)"/><path class="cls-1" d="M230.36,397.47a20.36,20.36,0,0,1-8.19-1.62,18.61,18.61,0,0,1-6.44-4.59,21.39,21.39,0,0,1-4.22-6.93,24.2,24.2,0,0,1-1.5-8.64,24.44,24.44,0,0,1,1.5-8.67,21,21,0,0,1,4.22-6.93,18.79,18.79,0,0,1,6.44-4.56,21.51,21.51,0,0,1,16.38,0,19,19,0,0,1,6.44,4.56A21,21,0,0,1,249.2,367a24.23,24.23,0,0,1,1.51,8.67,24,24,0,0,1-1.51,8.64,21.37,21.37,0,0,1-4.21,6.93,18.79,18.79,0,0,1-6.44,4.59A20.36,20.36,0,0,1,230.36,397.47Zm0-10.44a7.49,7.49,0,0,0,3.6-.87,8.11,8.11,0,0,0,2.73-2.43,11.5,11.5,0,0,0,1.72-3.63,16.78,16.78,0,0,0,0-8.82,11.5,11.5,0,0,0-1.72-3.63,8.11,8.11,0,0,0-2.73-2.43,7.88,7.88,0,0,0-7.2,0,8.14,8.14,0,0,0-2.74,2.43,11.72,11.72,0,0,0-1.72,3.63,16.78,16.78,0,0,0,0,8.82,11.72,11.72,0,0,0,1.72,3.63,8.14,8.14,0,0,0,2.74,2.43A7.43,7.43,0,0,0,230.36,387Z" transform="translate(-90.92 -97.51)"/><path class="cls-1" d="M270.09,397.47A15.91,15.91,0,0,1,262,395.4a14.59,14.59,0,0,1-5.61-5.88,18.76,18.76,0,0,1-2.05-9v-25.8h11.23v25.8a7.83,7.83,0,0,0,.56,3.12,4.9,4.9,0,0,0,1.58,2.07,4.28,4.28,0,0,0,4.84,0,4.82,4.82,0,0,0,1.58-2.07,7.83,7.83,0,0,0,.57-3.12v-25.8H286v25.8a8.21,8.21,0,0,0,.54,3.12,4.62,4.62,0,0,0,1.59,2.07,4.06,4.06,0,0,0,2.44.75,4,4,0,0,0,2.41-.75,4.92,4.92,0,0,0,1.59-2.07,8,8,0,0,0,.56-3.12v-25.8h11.17v25.8a19.1,19.1,0,0,1-2,9,14.54,14.54,0,0,1-5.56,5.88A16.92,16.92,0,0,1,286.6,397a14,14,0,0,1-3.43-1.38,12.88,12.88,0,0,1-2.88-2.22,14.72,14.72,0,0,1-2.87,2.19A13.48,13.48,0,0,1,274,397,15.37,15.37,0,0,1,270.09,397.47Z" transform="translate(-90.92 -97.51)"/><path class="cls-1" d="M310.84,396.69v-42h16a19.06,19.06,0,0,1,10.26,2.7,18.25,18.25,0,0,1,6.74,7.44,26,26,0,0,1,0,21.72,18.25,18.25,0,0,1-6.74,7.44,19.06,19.06,0,0,1-10.26,2.7Zm11.6-10.14h3.71a7.39,7.39,0,0,0,4.29-1.29,8.54,8.54,0,0,0,3-3.75,14.57,14.57,0,0,0,1.07-5.82,14.35,14.35,0,0,0-1.07-5.79,8.78,8.78,0,0,0-3-3.75,7.27,7.27,0,0,0-4.29-1.32h-3.71Z" transform="translate(-90.92 -97.51)"/><path class="cls-1" d="M360.78,396.69a11.39,11.39,0,0,1-5.88-1.56,11.51,11.51,0,0,1-4.22-4.29,12.63,12.63,0,0,1-1.55-6.33,12.46,12.46,0,0,1,1.15-5.31,11.71,11.71,0,0,1,3.2-4.17,11.7,11.7,0,0,1-2.85-3.81,10.62,10.62,0,0,1-1.07-4.65,12.27,12.27,0,0,1,1.53-6.21,11.1,11.1,0,0,1,4.13-4.17,11.26,11.26,0,0,1,5.72-1.5h16.7v10.14H363.52a3.57,3.57,0,0,0-1.56.33,2.63,2.63,0,0,0-1.1,1,2.89,2.89,0,0,0-.4,1.59,2.77,2.77,0,0,0,.4,1.53,2.63,2.63,0,0,0,1.1,1,3.57,3.57,0,0,0,1.56.33h12.24v10.08H363.57A3.44,3.44,0,0,0,362,381a2.77,2.77,0,0,0-1.1,1,3,3,0,0,0-.4,1.62,2.92,2.92,0,0,0,.4,1.56,2.57,2.57,0,0,0,1.1,1,3.7,3.7,0,0,0,1.61.33h14.07v10.2Z" transform="translate(-90.92 -97.51)"/><path class="cls-1" d="M400,397.47a9.07,9.07,0,0,1-5.39-1.62,8.5,8.5,0,0,1-3.2-4.44l-11.81-36.72h12l8,29.94a3.6,3.6,0,0,0,.19.39q.07.15.18.15a.34.34,0,0,0,.27-.12.83.83,0,0,0,.16-.42l7.84-29.94h12.14l-11.76,36.72a8.14,8.14,0,0,1-3.17,4.44A9.29,9.29,0,0,1,400,397.47Z" transform="translate(-90.92 -97.51)"/></g><g id="Layer_5" data-name="Layer 5"><path class="cls-1" d="M277,100s43-1,55,50c0,0,5,37-21,55l-16.25-37.69s11.19-23.8-8.28-31.05c0,0,1.44-6.58-125.52,37.08,0,0-21.63-12.21-8.79-33.27L197,125l2.91-1.44s15.57-25.38,22.83-26S277,100,277,100Z" transform="translate(-90.92 -97.51)"/><path class="cls-1" d="M294.75,167.31,135.66,219.5S115,244,146,252l112-34s21,.45,14.5,28.72c0,0,5.5-1.25-17.5,8.51L173,283s-18,26,9,31H305s39.78-9,51.38-47-38.88-67.52-38.88-67.52" transform="translate(-90.92 -97.51)"/><path class="cls-1" d="M256.58,218.43s21.85,5.75,13.89,29.91,13-11.84,13-11.84l-17-21Z" transform="translate(-90.92 -97.51)"/><path class="cls-1" d="M281.15,136.32s24.61,4.86,12.73,31.27S304,162,304,162l-3-29Z" transform="translate(-90.92 -97.51)"/><path class="cls-1" d="M182,314s180-7,172-75l-88,64" transform="translate(-90.92 -97.51)"/><path class="cls-1" d="M305,314s50.23,1.29,53.1-59.24" transform="translate(-90.92 -97.51)"/></g></svg>